# xmcd CD database file generated by Grip 3.2.0
# 
# Track frame offsets:
#       150
#       17211
#       33271
#       49784
#       67947
#       87208
#       104499
#       121273
#       136721
#       158925
#       176327
#       192439
# 
# Disc length: 2889 seconds
# 
# Revision: 1
# Processed by: cddbd v1.5.2PL0 Copyright (c) Steve Scherf et al.
# Submitted via: Grip 3.2.0
# 
DISCID=960b470c
DTITLE=Alda - Out of Alda
DYEAR=1998
DGENRE=Country
TTITLE0=Real Good Time
TTITLE1=Candy Girl
TTITLE2=Sometimes And May-Beez
TTITLE3=Won't Let Ya, Get Ya Down
TTITLE4=Perfect Life
TTITLE5=Friends
TTITLE6=Love Take On The World
TTITLE7=You, You, You
TTITLE8=Out Of Alda
TTITLE9=Close To You
TTITLE10=Girls Night Out
TTITLE11=Real Good Time (Truly Justified Mix)
EXTD=
EXTT0=
EXTT1=
EXTT2=
EXTT3=
EXTT4=
EXTT5=
EXTT6=
EXTT7=
EXTT8=
EXTT9=
EXTT10=
EXTT11=
PLAYORDER=
